<?xml version="1.0" encoding="utf-8"?>
<!-- Generator: Adobe Illustrator 15.1.0, SVG Export Plug-In . SVG Version: 6.00 Build 0)  -->
<!DOCTYPE svg PUBLIC "-//W3C//DTD SVG 1.1//EN" "http://www.w3.org/Graphics/SVG/1.1/DTD/svg11.dtd">
<svg version="1.1" id="Layer_1" xmlns="http://www.w3.org/2000/svg" xmlns:xlink="http://www.w3.org/1999/xlink" x="0px" y="0px"
	 width="3.521px" height="2.113px" viewBox="0 0 3.521 2.113" enable-background="new 0 0 3.521 2.113" xml:space="preserve">
<path fill="#FEB228" d="M354.977,212.464v-3.265c0-0.693-0.482-1.295-1.16-1.444l-4.387-0.974c-0.514-0.113-0.933-0.489-1.086-0.991
	c-0.32-1.04-0.736-2.037-1.238-2.982c-0.247-0.465-0.219-1.028,0.064-1.472l2.416-3.793c0.373-0.585,0.289-1.352-0.201-1.843
	l-2.309-2.309c-0.49-0.49-1.257-0.574-1.842-0.201l-3.792,2.416c-0.445,0.283-1.009,0.312-1.474,0.065
	c-0.944-0.502-1.941-0.918-2.981-1.238c-0.502-0.154-0.878-0.573-0.992-1.086l-0.973-4.387c-0.15-0.679-0.751-1.16-1.445-1.16
	h-3.264c-0.694,0-1.295,0.481-1.446,1.16l-0.972,4.387c-0.114,0.513-0.49,0.932-0.992,1.086c-1.04,0.32-2.037,0.736-2.982,1.238
	c-0.465,0.247-1.028,0.218-1.473-0.065l-3.792-2.416c-0.586-0.373-1.352-0.289-1.842,0.201l-2.309,2.309
	c-0.491,0.491-0.574,1.258-0.201,1.843l2.416,3.793c0.283,0.443,0.312,1.007,0.065,1.472c-0.502,0.945-0.918,1.942-1.238,2.982
	c-0.154,0.502-0.573,0.878-1.086,0.991l-4.387,0.974c-0.678,0.149-1.16,0.751-1.16,1.444v3.265c0,0.694,0.482,1.295,1.16,1.445
	l4.387,0.973c0.513,0.114,0.932,0.49,1.086,0.992c0.32,1.04,0.736,2.036,1.238,2.981c0.247,0.465,0.218,1.028-0.065,1.473
	l-2.416,3.793c-0.373,0.586-0.29,1.352,0.201,1.842l2.309,2.309c0.49,0.491,1.256,0.574,1.842,0.202l3.792-2.417
	c0.445-0.283,1.008-0.312,1.473-0.065c0.945,0.502,1.942,0.918,2.982,1.238c0.502,0.154,0.878,0.573,0.992,1.086l0.972,4.388
	c0.151,0.678,0.752,1.159,1.446,1.159h3.264c0.694,0,1.295-0.481,1.445-1.159l0.973-4.388c0.114-0.513,0.49-0.932,0.992-1.086
	c1.04-0.32,2.037-0.736,2.981-1.238c0.465-0.247,1.028-0.218,1.474,0.065l3.792,2.416c0.585,0.373,1.352,0.29,1.842-0.201
	l2.309-2.309c0.49-0.49,0.574-1.256,0.201-1.842l-2.416-3.793c-0.283-0.444-0.312-1.008-0.064-1.473
	c0.502-0.945,0.918-1.941,1.238-2.981c0.153-0.502,0.572-0.878,1.086-0.992l4.387-0.973
	C354.495,213.759,354.977,213.158,354.977,212.464 M331.946,217.159c-3.495,0-6.328-2.833-6.328-6.327
	c0-3.495,2.833-6.328,6.328-6.328s6.328,2.833,6.328,6.328C338.274,214.326,335.441,217.159,331.946,217.159"/>
</svg>
