<?xml version="1.0" encoding="utf-8"?>
<!-- Generator: Adobe Illustrator 18.1.1, SVG Export Plug-In . SVG Version: 6.00 Build 0)  -->
<svg version="1.1" id="Layer_1" xmlns="http://www.w3.org/2000/svg" xmlns:xlink="http://www.w3.org/1999/xlink" x="0px" y="0px"
	 viewBox="0 0 106.4 147.1" enable-background="new 0 0 106.4 147.1" xml:space="preserve">
<g>
	<text transform="matrix(1 0 0 1 19.3516 137.6084)" fill="#FFFFFF" font-family="'Avenir-Heavy'" font-size="22">AWAY</text>
	<g>
		<path fill="#FFFFFF" d="M101.1,24c0-0.7,0-1.4-0.1-2c-0.1-0.5,0.2-0.9,0.6-1.1l4.1-1.8c0.5-0.2,0.8-0.8,0.6-1.3l-0.7-2.2
			c-0.2-0.5-0.7-0.9-1.3-0.7l-4.4,0.9c-0.5,0.1-0.9-0.1-1.2-0.5c-0.7-1.2-1.5-2.3-2.4-3.3c-0.3-0.4-0.4-0.9-0.2-1.3l2.2-3.9
			c0.3-0.5,0.1-1.1-0.3-1.4l-1.9-1.4c-0.5-0.3-1.1-0.3-1.5,0.2l-3,3.3c-0.3,0.4-0.8,0.5-1.3,0.3c-1.2-0.6-2.5-1-3.8-1.2
			c-0.5-0.1-0.8-0.5-0.9-1L85.4,1c-0.1-0.6-0.5-1-1.1-1h-2.3c-0.6,0-1,0.4-1.1,1l-0.5,4.5c-0.1,0.5-0.4,0.9-0.9,1
			c-1.3,0.3-2.6,0.7-3.8,1.2c-0.4,0.2-1,0.1-1.3-0.3l-3-3.3c-0.4-0.4-1-0.5-1.5-0.2L68,5.3c-0.5,0.3-0.6,0.9-0.3,1.4l2.2,3.9
			c0.2,0.4,0.2,0.9-0.2,1.3c-0.9,1-1.7,2.1-2.4,3.3c-0.2,0.4-0.7,0.6-1.2,0.5l-4.4-0.9c-0.5-0.1-1.1,0.2-1.3,0.7l-0.7,2.2
			c-0.2,0.5,0.1,1.1,0.6,1.3l4.1,1.8c0.4,0.2,0.7,0.6,0.6,1.1c-0.1,0.7-0.1,1.3-0.1,2s0,1.4,0.1,2c0.1,0.5-0.2,0.9-0.6,1.1L60.5,29
			c-0.5,0.2-0.8,0.8-0.6,1.3l0.7,2.2c0.2,0.5,0.7,0.9,1.3,0.7l4.4-0.9c0.5-0.1,0.9,0.1,1.2,0.5c0.7,1.2,1.5,2.3,2.4,3.3
			c0.3,0.4,0.4,0.9,0.2,1.3l-2.2,3.9c-0.3,0.5-0.1,1.1,0.3,1.4l1.9,1.4c0.5,0.3,1.1,0.3,1.5-0.2l3-3.3c0.3-0.4,0.8-0.5,1.3-0.3
			c1.2,0.6,2.5,1,3.8,1.2c0.5,0.1,0.8,0.5,0.9,1l0.5,4.5c0.1,0.6,0.5,1,1.1,1h2.3c0.6,0,1-0.4,1.1-1l0.5-4.5c0.1-0.5,0.4-0.9,0.9-1
			c1.3-0.3,2.6-0.7,3.8-1.2c0.4-0.2,1-0.1,1.3,0.3l3,3.3c0.4,0.4,1,0.5,1.5,0.2l1.9-1.4c0.5-0.3,0.6-0.9,0.3-1.4l-2.2-3.9
			c-0.2-0.4-0.2-0.9,0.2-1.3c0.9-1,1.7-2.1,2.4-3.3c0.2-0.4,0.7-0.6,1.2-0.5l4.4,0.9c0.5,0.1,1.1-0.2,1.3-0.7l0.7-2.2
			c0.2-0.5-0.1-1.1-0.6-1.3l-4.1-1.8c-0.4-0.2-0.7-0.6-0.6-1.1C101.1,25.4,101.1,24.7,101.1,24z M84.6,31.4c-5.3,1-9.8-3.5-8.8-8.8
			c0.6-2.9,2.9-5.3,5.9-5.9c5.3-1,9.8,3.5,8.8,8.8C89.9,28.4,87.5,30.8,84.6,31.4z"/>
		<g>
			<path fill="#FFFFFF" d="M56,50.7h-7.3c-0.3,0-0.5,0.2-0.5,0.5v3.7h8.2v-3.7C56.5,50.9,56.2,50.7,56,50.7z"/>
			<path fill="#FFFFFF" d="M93.9,46c-0.2-0.2-0.5-0.3-0.7-0.6l-2.5-2.8c-0.9,0.4-1.9,0.7-2.8,0.9l-0.4,3.7c-0.2,1.7-1.6,2.9-3.2,2.9
				h-2.3c-1.7,0-3-1.2-3.2-2.9l-0.4-3.7c-1-0.2-1.9-0.5-2.8-0.9L73,45.5c-0.6,0.7-1.5,1.1-2.4,1.1c-0.7,0-1.3-0.2-1.9-0.6l-1.9-1.4
				c-1.3-1-1.7-2.8-0.9-4.2l1.9-3.2c-0.6-0.8-1.2-1.6-1.8-2.4l-3.7,0.8c-0.2,0-0.4,0.1-0.7,0.1c-1.4,0-2.6-0.9-3.1-2.2L57.8,31
				c-0.5-1.6,0.2-3.3,1.8-4l3.4-1.5c0-0.5-0.1-1-0.1-1.5c0-0.5,0-1,0.1-1.5L59.6,21c-0.8-0.4-1.4-1-1.7-1.7H26.2L0,64.6l26.2,45.3
				h52.3l26.2-45.3L93.9,46z M38.8,81.5h-4.5c-1.8,0-3.3-1.5-3.3-3.3v-20c0-1.8,1.5-3.3,3.3-3.3h4.5V81.5z M63.8,81.5h-23V54.8h4.4
				v-3.7c0-1.9,1.6-3.5,3.5-3.5H56c1.9,0,3.5,1.6,3.5,3.5v3.7h4.4V81.5z M73.7,78.2c0,1.8-1.5,3.3-3.3,3.3h-4.5V54.8h4.5
				c1.8,0,3.3,1.5,3.3,3.3V78.2z"/>
		</g>
	</g>
</g>
</svg>
