<?xml version="1.0" encoding="utf-8"?>
<!-- Generator: Adobe Illustrator 18.1.1, SVG Export Plug-In . SVG Version: 6.00 Build 0)  -->
<svg version="1.1" id="Layer_1" xmlns="http://www.w3.org/2000/svg" xmlns:xlink="http://www.w3.org/1999/xlink" x="0px" y="0px"
	 viewBox="0 0 182.8 61.1" enable-background="new 0 0 182.8 61.1" xml:space="preserve">
<g>
	<path fill="#002E40" d="M152.3,61.1H30.5C13.7,61.1,0,47.4,0,30.5v0C0,13.7,13.7,0,30.5,0l121.7,0c16.9,0,30.5,13.7,30.5,30.5v0
		C182.8,47.4,169.1,61.1,152.3,61.1z"/>
	<g>
		<path fill="#8AC0DE" d="M91.4,17.4c-7.3,0-13.2,5.9-13.2,13.2c0,7.3,5.9,13.2,13.2,13.2c7.3,0,13.2-5.9,13.2-13.2
			C104.6,23.3,98.7,17.4,91.4,17.4z M91.4,40c-5.2,0-9.4-4.2-9.4-9.4c0-5.2,4.2-9.4,9.4-9.4c5.2,0,9.4,4.2,9.4,9.4
			C100.8,35.7,96.6,40,91.4,40z"/>
		<path fill="#8AC0DE" d="M91.4,22.2L91.4,22.2c-1,0-1.9,0.8-1.9,1.9v4.6v1.9v1.9l6.1,0c1,0,1.9-0.8,1.9-1.9v0c0-1-0.8-1.9-1.9-1.9
			l-2.3,0v-4.6C93.3,23.1,92.4,22.2,91.4,22.2z"/>
	</g>
	<text transform="matrix(1 0 0 1 23.8803 36.678)" fill="#8AC0DE" font-family="'Avenir-Heavy'" font-size="21.38">9am</text>
	<text transform="matrix(1 0 0 1 112.8544 36.678)" fill="#8AC0DE" font-family="'Avenir-Heavy'" font-size="21.38">4pm</text>
</g>
</svg>
