<?xml version="1.0" encoding="utf-8"?>
<!-- Generator: Adobe Illustrator 18.1.1, SVG Export Plug-In . SVG Version: 6.00 Build 0)  -->
<svg version="1.1" id="Layer_1" xmlns="http://www.w3.org/2000/svg" xmlns:xlink="http://www.w3.org/1999/xlink" x="0px" y="0px"
	 viewBox="0 0 33.6 33.6" enable-background="new 0 0 33.6 33.6" xml:space="preserve">
<g>
	<circle fill="#8AC0DE" cx="16.8" cy="16.8" r="16.8"/>
	<path fill="#404A69" d="M19.5,16.8l4.5-4.5c0.7-0.7,0.7-1.9,0-2.7c-0.7-0.7-1.9-0.7-2.7,0l-4.5,4.5l-4.5-4.5
		c-0.7-0.7-1.9-0.7-2.7,0c-0.7,0.7-0.7,1.9,0,2.7l4.5,4.5l-4.5,4.5c-0.7,0.7-0.7,1.9,0,2.7c0.4,0.4,0.9,0.6,1.3,0.6
		c0.5,0,1-0.2,1.3-0.6l4.5-4.5l4.5,4.5c0.4,0.4,0.9,0.6,1.3,0.6c0.5,0,1-0.2,1.3-0.6c0.7-0.7,0.7-1.9,0-2.7L19.5,16.8z"/>
</g>
</svg>
